<svg xmlns="http://www.w3.org/2000/svg" version="1.1" viewBox="-5.0 -10.0 110.0 135.0">
 <path d="m69.895 71.559c-2.3789 0-4.5781 1.1875-5.8984 3.1367 0.6875 0.57813 1.2695 1.3008 1.6914 2.1406 0.19922 0.39453 0.039062 0.875-0.35547 1.0742-0.11328 0.058594-0.23828 0.085938-0.35938 0.085938-0.29297 0-0.57422-0.16016-0.71484-0.44141-0.41406-0.82031-1.0234-1.4922-1.7578-1.9805-0.003906-0.003907-0.007812-0.003907-0.011719-0.007813-0.41797-0.27344-0.87109-0.48438-1.3438-0.62891h-0.003906c-0.10938-0.03125-0.22266-0.0625-0.33594-0.089844-0.007813-0.003906-0.015626-0.003906-0.027344-0.007812-0.10547-0.023438-0.21094-0.042969-0.31641-0.058594-0.015626-0.003906-0.03125-0.007812-0.050782-0.007812-0.10156-0.015626-0.20312-0.023438-0.30469-0.03125-0.023438-0.003907-0.042969-0.003907-0.066407-0.007813-0.12109-0.007813-0.24609-0.011719-0.37109-0.011719-2.2109 0-4.168 1.4062-4.8672 3.5039-0.078125 0.23828-0.26562 0.42578-0.50391 0.50391s-0.5 0.042969-0.70703-0.097657c-1.0625-0.72266-2.3047-1.1055-3.5938-1.1055-1.2891 0-2.5312 0.38281-3.5938 1.1055-0.13672 0.09375-0.29297 0.14063-0.44922 0.14063-0.085937 0-0.17188-0.015626-0.25391-0.042969-0.23828-0.078125-0.42578-0.26562-0.50391-0.50391-0.69922-2.0977-2.6562-3.5039-4.8672-3.5039-0.125 0-0.25 0.003906-0.37109 0.011719-0.015625 0-0.03125 0.003906-0.046875 0.003906-0.10938 0.007813-0.21484 0.019531-0.32422 0.035157-0.011719 0.003906-0.027344 0.003906-0.039063 0.007812-0.10938 0.015625-0.21875 0.035156-0.32812 0.058594-0.007812 0-0.011719 0.003906-0.015625 0.003906-0.60156 0.13672-1.1719 0.375-1.6914 0.71875-0.003907 0.003906-0.007813 0.003906-0.011719 0.007812-0.73047 0.48438-1.3438 1.1562-1.7539 1.9766-0.14062 0.27734-0.42188 0.44141-0.71484 0.44141-0.12109 0-0.24219-0.027343-0.35938-0.085937-0.39453-0.19922-0.55469-0.67969-0.35547-1.0742 0.42188-0.83984 1.0039-1.5625 1.6914-2.1406-1.3164-1.9492-3.5195-3.1367-5.8984-3.1367-0.61328 0-1.2227 0.078125-1.8086 0.23047-0.42969 0.11328-0.86328-0.14453-0.97656-0.57031-0.11328-0.42578 0.14453-0.86328 0.57031-0.97656 0.71875-0.1875 1.4648-0.28516 2.2148-0.28516 2.9258 0 5.6328 1.4609 7.2422 3.8594 0.42969-0.21094 0.87891-0.375 1.3477-0.49219 0.046875-0.011718 0.089843-0.023437 0.13672-0.03125 0.078124-0.015625 0.15625-0.03125 0.23437-0.046875 0.066407-0.011719 0.13672-0.023437 0.20313-0.035156 0.066406-0.011719 0.13281-0.019531 0.20312-0.027344 0.085938-0.011719 0.17578-0.019531 0.26172-0.027343 0.054688-0.003907 0.10938-0.011719 0.16406-0.015626 0.14062-0.007812 0.28125-0.015624 0.42188-0.015624h0.011719c2.5703 0 4.875 1.4492 6.0078 3.6914 1.1289-0.58203 2.375-0.88672 3.6602-0.88672s2.5352 0.30469 3.6602 0.88672c1.1328-2.2422 3.4375-3.6914 6.0078-3.6914 0.14453 0 0.28906 0.007812 0.43359 0.015624 0.054687 0.003907 0.10547 0.007813 0.15625 0.015626 0.089843 0.007812 0.17969 0.015624 0.26562 0.027343 0.066406 0.007813 0.13281 0.019531 0.19531 0.027344 0.070313 0.011719 0.14062 0.023437 0.21094 0.035156 0.074218 0.015625 0.15234 0.027344 0.22656 0.046875 0.046875 0.011719 0.097656 0.023438 0.14453 0.035156 0.46484 0.11719 0.91406 0.28125 1.3398 0.48828 1.6133-2.3984 4.3164-3.8594 7.2422-3.8594 0.78125 0 1.5547 0.10156 2.3008 0.30859 0.42578 0.11719 0.67578 0.55469 0.5625 0.98047-0.11719 0.42578-0.55469 0.67578-0.98047 0.5625-0.60938-0.16406-1.2422-0.25-1.8789-0.25zm13.871 8.2773c-0.40625-0.17188-0.875 0.023437-1.0469 0.42969s0.023438 0.875 0.42969 1.0469c2.9414 1.2305 4.9258 3.957 5.2148 7.0859h-76.727c0.29297-3.1562 2.2969-5.8945 5.2734-7.1094 0.41016-0.16797 0.60547-0.63281 0.4375-1.043-0.16797-0.41016-0.63281-0.60547-1.043-0.4375-3.832 1.5664-6.3086 5.2539-6.3086 9.3906 0 0.44141 0.35938 0.80078 0.80078 0.80078h78.398c0.44141 0 0.80078-0.35938 0.80078-0.80078 0-4.1055-2.4492-7.7812-6.2344-9.3633zm-56.887 0.43359c-0.41016-0.16406-0.875 0.03125-1.0391 0.44141-0.16406 0.41016 0.03125 0.875 0.44141 1.0391 0.98828 0.39844 1.8867 0.97656 2.6641 1.7109 0.15625 0.14453 0.35156 0.21875 0.55078 0.21875 0.21094 0 0.42578-0.085938 0.58203-0.25 0.30469-0.32031 0.28906-0.82813-0.03125-1.1328-0.92578-0.87109-1.9883-1.5547-3.1641-2.0312zm44.293 3.4102c0.19531 0 0.39453-0.070313 0.55078-0.21875 0.77734-0.73438 1.6758-1.3125 2.6641-1.7109 0.41016-0.16406 0.60938-0.63281 0.44141-1.0391-0.16406-0.41016-0.63281-0.60938-1.0391-0.44141-1.1758 0.47266-2.2383 1.1562-3.1641 2.0312-0.32031 0.30469-0.33594 0.80859-0.03125 1.1328 0.15625 0.16797 0.37109 0.25 0.58203 0.25zm7.6797-21.805c-0.30078 0-0.57812 0.16797-0.71484 0.4375l-5.5508 10.938c-0.125 0.24609-0.11328 0.54297 0.03125 0.78125 0.14453 0.23828 0.40234 0.38281 0.68359 0.38281h2.2617v7.9883c0 0.44141 0.35938 0.80078 0.80078 0.80078 0.44141 0 0.80078-0.35938 0.80078-0.80078v-8.7891c0-0.44141-0.35937-0.80078-0.80078-0.80078h-1.7617l4.2461-8.3672 4.2461 8.3672h-1.7617c-0.44141 0-0.80078 0.35938-0.80078 0.80078v8.7891c0 0.44141 0.35938 0.80078 0.80078 0.80078 0.44141 0 0.80078-0.35938 0.80078-0.80078v-7.9883h2.2617c0.27734 0 0.53516-0.14453 0.68359-0.38281 0.14453-0.23828 0.15625-0.53125 0.03125-0.78125l-5.5508-10.938c-0.13672-0.26953-0.41016-0.4375-0.71484-0.4375zm-63.25 12.535h2.2617v7.9883c0 0.44141 0.35938 0.80078 0.80078 0.80078 0.44141 0 0.80078-0.35938 0.80078-0.80078v-8.7891c0-0.44141-0.35938-0.80078-0.80078-0.80078h-1.7617l4.2461-8.3672 4.2461 8.3672h-1.7617c-0.44141 0-0.80078 0.35938-0.80078 0.80078v8.7891c0 0.44141 0.35938 0.80078 0.80078 0.80078 0.44141 0 0.80078-0.35938 0.80078-0.80078v-7.9883h2.2617c0.27734 0 0.53516-0.14453 0.68359-0.38281 0.14453-0.23828 0.15625-0.53125 0.03125-0.78125l-5.5508-10.938c-0.13672-0.26953-0.41016-0.4375-0.71484-0.4375-0.30078 0-0.57812 0.16797-0.71484 0.4375l-5.5508 10.938c-0.125 0.24609-0.11328 0.54297 0.03125 0.78125 0.14453 0.23828 0.40234 0.38281 0.68359 0.38281zm1.1875-23.242-0.003906-37.32c0-2.1211 1.7266-3.8477 3.8477-3.8477h58.73c2.1211 0 3.8477 1.7266 3.8477 3.8477v37.324c0 2.1211-1.7266 3.8477-3.8477 3.8477h-12.539c-0.44141 0-0.80078-0.35938-0.80078-0.80078s0.35937-0.80078 0.80078-0.80078h12.539c1.2383 0 2.2461-1.0078 2.2461-2.2461v-30.23h-63.223v30.23c0 1.2383 1.0078 2.2461 2.2461 2.2461h12.539c0.44141 0 0.80078 0.35938 0.80078 0.80078s-0.35938 0.80078-0.80078 0.80078h-12.539c-2.1211 0-3.8477-1.7266-3.8477-3.8477zm1.6016-31.832h63.227v-5.4922c0-1.2383-1.0078-2.2461-2.2461-2.2461l-58.734 0.003906c-1.2383 0-2.2461 1.0078-2.2461 2.2461v5.4922zm9.4844-3.8711c0 1.3828-1.125 2.5039-2.5039 2.5039-1.3828 0-2.5039-1.125-2.5039-2.5039 0-1.3828 1.125-2.5039 2.5039-2.5039 1.3828 0 2.5039 1.125 2.5039 2.5039zm-1.6016 0c0-0.5-0.40625-0.90625-0.90625-0.90625s-0.90625 0.40625-0.90625 0.90625 0.40625 0.90625 0.90625 0.90625 0.90625-0.40625 0.90625-0.90625zm10.895 0c0 1.3828-1.125 2.5039-2.5039 2.5039-1.3828 0-2.5039-1.125-2.5039-2.5039 0-1.3828 1.125-2.5039 2.5039-2.5039 1.3828 0 2.5039 1.125 2.5039 2.5039zm-1.6016 0c0-0.5-0.40625-0.90625-0.90625-0.90625s-0.90625 0.40625-0.90625 0.90625 0.40625 0.90625 0.90625 0.90625 0.90625-0.40625 0.90625-0.90625zm10.895 0c0 1.3828-1.125 2.5039-2.5039 2.5039-1.3828 0-2.5039-1.125-2.5039-2.5039 0-1.3828 1.125-2.5039 2.5039-2.5039 1.3828 0 2.5039 1.125 2.5039 2.5039zm-1.6016 0c0-0.5-0.40625-0.90625-0.90625-0.90625s-0.90625 0.40625-0.90625 0.90625 0.40625 0.90625 0.90625 0.90625 0.90625-0.40625 0.90625-0.90625zm-8.8594 43.305 0.84766-14.285c0.015625-0.26953 0.16406-0.51172 0.39844-0.64453l4.3828-2.5312c1.0234-5.5039 3.707-10.543 7.8164-14.539 0.3125-0.30078 0.80469-0.30078 1.1172 0 4.1055 3.9961 6.793 9.0352 7.8164 14.539l4.3828 2.5312c0.23438 0.13281 0.38281 0.37891 0.39844 0.64453l0.84766 14.285c0.019532 0.32031-0.15234 0.61719-0.44141 0.76172-0.11328 0.058594-0.23438 0.085938-0.35938 0.085938-0.18359 0-0.36719-0.0625-0.51562-0.1875l-5.2461-4.4297c-0.50781 1.5234-1.1445 3-1.9141 4.418 0.41016 0.25781 0.68359 0.71094 0.68359 1.2266v3.7031c0 0.79688-0.64844 1.4453-1.4453 1.4453h-1.3672c0.13281 0.65625 0.19922 1.3242 0.19922 2.0039 0 2.7305-1.0781 5.2852-3.0391 7.1914-0.15625 0.15234-0.35547 0.22656-0.55859 0.22656-0.19922 0-0.40234-0.074219-0.55859-0.22656-1.9609-1.9062-3.0391-4.4609-3.0391-7.1914 0-0.67578 0.066406-1.3477 0.19922-2.0039h-1.3672c-0.79688 0-1.4453-0.64844-1.4453-1.4453v-3.7031c0-0.51953 0.27344-0.97266 0.68359-1.2266-0.76953-1.4141-1.4102-2.8945-1.9141-4.418l-5.2461 4.4297c-0.14844 0.125-0.33203 0.1875-0.51562 0.1875-0.12109 0-0.24609-0.027344-0.35938-0.085938-0.28516-0.14453-0.46094-0.44141-0.44141-0.76172zm21.938-5.4453 4.3555 3.6797-0.71094-11.992-2.9102-1.6797c0.10938 1.0039 0.16797 2.0156 0.16797 3.0391 0 2.3594-0.30859 4.6992-0.89844 6.957zm-5.9414 14.473c0-0.67969-0.082032-1.3516-0.23828-2.0039h-3.5117c-0.16016 0.65234-0.23828 1.3242-0.23828 2.0039 0 2.0234 0.70313 3.9297 1.9961 5.4492 1.293-1.5195 1.9961-3.4258 1.9961-5.4492zm2.6133-7h-9.2188v3.3984h9.2188zm-9.9375-24.199h10.656c-1.2227-2.9883-3.0195-5.7383-5.3281-8.1211-2.3086 2.3867-4.1055 5.1367-5.3281 8.1211zm-1.9102 9.7695c0 4.5156 1.1836 8.9414 3.4258 12.828h7.6289c2.2383-3.8867 3.4258-8.3125 3.4258-12.828 0-2.8242-0.44922-5.5742-1.3164-8.1719h-11.844c-0.86328 2.5977-1.3164 5.3477-1.3164 8.1719zm-5.0547 10.633 4.3555-3.6797c-0.59375-2.2578-0.89844-4.5938-0.89844-6.957 0-1.0234 0.058594-2.0391 0.16797-3.0391l-2.9102 1.6797-0.71094 11.992zm8.1016-9.332c0-2.3125 1.8789-4.1914 4.1914-4.1914s4.1914 1.8789 4.1914 4.1914-1.8789 4.1914-4.1914 4.1914-4.1914-1.8789-4.1914-4.1914zm1.6016 0c0 1.4297 1.1602 2.5898 2.5898 2.5898s2.5898-1.1602 2.5898-2.5898c0-1.4297-1.1602-2.5898-2.5898-2.5898s-2.5898 1.1602-2.5898 2.5898zm-22.973-14.367h14.531c0.44141 0 0.80078-0.35938 0.80078-0.80078s-0.35938-0.80078-0.80078-0.80078h-14.531c-0.44141 0-0.80078 0.35938-0.80078 0.80078s0.35938 0.80078 0.80078 0.80078zm0 8.7227c-0.44141 0-0.80078 0.35937-0.80078 0.80078 0 0.44141 0.35938 0.80078 0.80078 0.80078h8.5703c0.44141 0 0.80078-0.35938 0.80078-0.80078 0-0.44141-0.35938-0.80078-0.80078-0.80078zm0-13.887h17.566c0.44141 0 0.80078-0.35938 0.80078-0.80078 0-0.44141-0.35938-0.80078-0.80078-0.80078h-17.566c-0.44141 0-0.80078 0.35938-0.80078 0.80078 0 0.44141 0.35938 0.80078 0.80078 0.80078zm13.473 9.5234c0-0.44141-0.35938-0.80078-0.80078-0.80078h-12.672c-0.44141 0-0.80078 0.35938-0.80078 0.80078s0.35938 0.80078 0.80078 0.80078h12.672c0.44141 0 0.80078-0.35938 0.80078-0.80078zm37.652-5.9609h-14.703c-0.44141 0-0.80078 0.35938-0.80078 0.80078s0.35938 0.80078 0.80078 0.80078h14.703c0.44141 0 0.80078-0.35938 0.80078-0.80078s-0.35938-0.80078-0.80078-0.80078zm0 10.324h-8.7383c-0.44141 0-0.80078 0.35937-0.80078 0.80078 0 0.44141 0.35937 0.80078 0.80078 0.80078h8.7383c0.44141 0 0.80078-0.35938 0.80078-0.80078 0-0.44141-0.35938-0.80078-0.80078-0.80078zm0-5.1602h-12.84c-0.44141 0-0.80078 0.35938-0.80078 0.80078 0 0.44141 0.35938 0.80078 0.80078 0.80078h12.84c0.44141 0 0.80078-0.35938 0.80078-0.80078 0-0.44141-0.35938-0.80078-0.80078-0.80078zm0-10.324h-17.734c-0.44141 0-0.80078 0.35938-0.80078 0.80078s0.35938 0.80078 0.80078 0.80078h17.734c0.44141 0 0.80078-0.35938 0.80078-0.80078s-0.35938-0.80078-0.80078-0.80078zm-38.18 56.945c0 1.5391-1.2539 2.793-2.793 2.793-1.5391 0-2.793-1.2539-2.793-2.793s1.2539-2.793 2.793-2.793c1.5391 0 2.793 1.2539 2.793 2.793zm-1.6016 0c0-0.65625-0.53516-1.1914-1.1914-1.1914s-1.1914 0.53516-1.1914 1.1914 0.53516 1.1914 1.1914 1.1914 1.1914-0.53516 1.1914-1.1914zm14.141-3.4219c1.5391 0 2.793 1.2539 2.793 2.793 0 1.5391-1.2539 2.793-2.793 2.793s-2.793-1.2539-2.793-2.793c0-1.5391 1.2539-2.793 2.793-2.793zm0 1.6016c-0.65625 0-1.1914 0.53516-1.1914 1.1914s0.53516 1.1914 1.1914 1.1914 1.1914-0.53516 1.1914-1.1914-0.53516-1.1914-1.1914-1.1914zm15.336-0.62109c1.5391 0 2.793 1.2539 2.793 2.793 0 1.5391-1.2539 2.793-2.793 2.793-1.5391 0-2.793-1.2539-2.793-2.793 0-1.5391 1.2539-2.793 2.793-2.793zm0 1.6016c-0.65625 0-1.1914 0.53516-1.1914 1.1914s0.53516 1.1914 1.1914 1.1914 1.1914-0.53516 1.1914-1.1914-0.53516-1.1914-1.1914-1.1914z"/>
<text x="0.0" y="117.5" font-size="5.0" font-weight="bold" font-family="Arbeit Regular, Helvetica, Arial-Unicode, Arial, Sans-serif" fill="#000000">Created by Mia Elysia</text><text x="0.0" y="122.5" font-size="5.0" font-weight="bold" font-family="Arbeit Regular, Helvetica, Arial-Unicode, Arial, Sans-serif" fill="#000000">from Noun Project</text></svg>