<svg xmlns="http://www.w3.org/2000/svg" data-name="Layer 1" viewBox="0 0 64 80" x="0px" y="0px"><path d="m44.826,29.305c-.595,0-1.093-.406-1.273-.973-.21-.661-.476-1.297-.791-1.903-.275-.529-.21-1.169.212-1.591l.646-.646c-1.012-1.503-2.308-2.799-3.812-3.812l-.646.647c-.422.422-1.062.487-1.591.212-.606-.315-1.242-.58-1.903-.791-.567-.18-.973-.678-.973-1.273v-.909c-.873-.17-1.773-.265-2.695-.265s-1.822.095-2.695.265v.909c0,.595-.406,1.093-.973,1.273-.661.21-1.297.475-1.903.791-.529.275-1.169.21-1.591-.212l-.646-.647c-1.503,1.012-2.799,2.308-3.812,3.812l.646.646c.422.422.487,1.062.212,1.591-.315.606-.58,1.242-.791,1.903-.18.567-.678.973-1.273.973h-.909c-.17.873-.265,1.773-.265,2.695s.095,1.822.265,2.695h.909c.595,0,1.093.406,1.273.973.21.661.476,1.297.791,1.903.275.529.21,1.169-.212,1.591l-.646.646c1.012,1.503,2.308,2.799,3.812,3.812l.647-.646c.422-.422,1.062-.487,1.591-.212.606.315,1.242.581,1.903.791.567.18.973.678.973,1.273v.909c.873.17,1.773.265,2.695.265s1.822-.095,2.695-.265v-.909c0-.595.406-1.093.973-1.273.661-.21,1.297-.475,1.903-.791.529-.275,1.169-.21,1.591.212l.647.646c1.503-1.012,2.799-2.308,3.812-3.812l-.646-.646c-.422-.422-.487-1.062-.212-1.591.315-.606.58-1.242.791-1.903.18-.567.678-.973,1.273-.973h.909c.17-.873.265-1.773.265-2.695s-.095-1.823-.265-2.695h-.909Zm-12.826,10.234c-4.163,0-7.538-3.375-7.538-7.538s3.375-7.538,7.538-7.538,7.538,3.375,7.538,7.538-3.375,7.538-7.538,7.538Z" style="" stroke-width=" 0px"/><path d="m32,1C14.907,1,1,14.907,1,32s13.907,31,31,31,31-13.907,31-31S49.093,1,32,1Zm0,60c-15.991,0-29-13.009-29-29S16.009,3,32,3s29,13.009,29,29-13.009,29-29,29Z" style="" stroke-width=" 0px"/><polygon points="31 16.5 33 16.5 33 10.5 37 10.5 32 4.5 27 10.5 31 10.5 31 16.5" style="" stroke-width=" 0px"/><polygon points="33 47.5 31 47.5 31 53.5 27 53.5 32 59.5 37 53.5 33 53.5 33 47.5" style="" stroke-width=" 0px"/><polygon points="48 33 54 33 54 37 60 32 54 27 54 31 48 31 48 33" style="" stroke-width=" 0px"/><polygon points="11 27 5 32 11 37 11 33 17 33 17 31 11 31 11 27" style="" stroke-width=" 0px"/><text x="0" y="79" fill="#000000" font-size="5px" font-weight="bold" font-family="'Helvetica Neue', Helvetica, Arial-Unicode, Arial, Sans-serif">Created by Nithinan Tatah</text><text x="0" y="84" fill="#000000" font-size="5px" font-weight="bold" font-family="'Helvetica Neue', Helvetica, Arial-Unicode, Arial, Sans-serif">from the Noun Project</text></svg>